<svg xmlns="http://www.w3.org/2000/svg" width="353" height="45" viewBox="0 0 353 45">
  <g id="Group_115" data-name="Group 115" transform="translate(-463 -567.5)">
    <path id="Rectangle" d="M8,0H345a8,8,0,0,1,8,8V37a8,8,0,0,1-8,8H8a8,8,0,0,1-8-8V8A8,8,0,0,1,8,0Z" transform="translate(463 567.5)" fill="#e57d33"/>
    <g id="Group_112" data-name="Group 112" transform="translate(483 241.5)">
      <path id="Path" d="M18.895,0H1.105A1.105,1.105,0,0,0,0,1.105V18.895A1.105,1.105,0,0,0,1.105,20h9.579V12.281H8.07V9.239h2.6V7.018a3.637,3.637,0,0,1,3.881-3.993,21.807,21.807,0,0,1,2.344.133v2.7H15.3c-1.253,0-1.495.593-1.495,1.467v1.93h3l-.389,3.028H13.807V20h5.088A1.105,1.105,0,0,0,20,18.895V1.105A1.105,1.105,0,0,0,18.895,0Z" transform="translate(49 339)" fill="#fff"/>
      <text id="Label" transform="translate(79.5 355)" fill="#fff" font-size="17" font-family="OpenSans-Bold, Open Sans" font-weight="700"><tspan x="0" y="0">Prisijunk su Facebook</tspan></text>
    </g>
  </g>
</svg>
