<svg xmlns="http://www.w3.org/2000/svg" width="353" height="45" viewBox="0 0 353 45">
  <g id="Group_114" data-name="Group 114" transform="translate(-463 -513.5)">
    <rect id="Rectangle" width="353" height="45" rx="8" transform="translate(463 513.5)" fill="#e57d33"/>
    <g id="Group_113" data-name="Group 113" transform="translate(-300 -146)">
      <text id="Label" transform="translate(873.5 688.5)" fill="#fff" font-size="17" font-family="OpenSans-Bold, Open Sans" font-weight="700"><tspan x="0" y="0">Prisijunk su Google</tspan></text>
      <path id="Path_19124" data-name="Path 19124" d="M145.943,83.84c-.005.064-.01.115-.01.165,0,1.261,0,3.989,0,3.989h5.535a4.7,4.7,0,0,1-2.033,3.111,5.93,5.93,0,0,1-3,.964,6.043,6.043,0,0,1-2.241-.26,6.224,6.224,0,0,1-4.262-5.373,5.95,5.95,0,0,1,.125-1.875,6.107,6.107,0,0,1,6.8-4.758,5.573,5.573,0,0,1,3.037,1.465l3.006-3.01a12.542,12.542,0,0,0-1.831-1.345,9.845,9.845,0,0,0-4.9-1.334c-.33,0-.661.015-.988.03a8.067,8.067,0,0,0-1.7.265,10.36,10.36,0,0,0-7.832,9.444,9.77,9.77,0,0,0,.217,2.782,10.227,10.227,0,0,0,4.045,6.178,10.086,10.086,0,0,0,5.518,1.956,10.94,10.94,0,0,0,3.387-.336,9,9,0,0,0,5.085-3.343,11.088,11.088,0,0,0,1.774-8.715Z" transform="translate(707.381 596.42)" fill="#fff"/>
    </g>
  </g>
</svg>
