<svg xmlns="http://www.w3.org/2000/svg" width="127.492" height="127.492" viewBox="0 0 127.492 127.492">
  <g id="Group_5840" data-name="Group 5840" transform="translate(0 0)">
    <circle id="Ellipse_35" data-name="Ellipse 35" cx="52.989" cy="52.989" r="52.989" transform="matrix(0.23, -0.973, 0.973, 0.23, 0, 103.143)" fill="#fff"/>
    <path id="Path_19106" data-name="Path 19106" d="M-128.846,261.6c-6.6,0-7.531.035-10.268.159a19.443,19.443,0,0,0-6.43,1.233,12.971,12.971,0,0,0-4.693,3.055,13,13,0,0,0-3.057,4.693,19.449,19.449,0,0,0-1.23,6.43c-.129,2.825-.16,3.729-.16,10.924s.031,8.1.16,10.924a19.45,19.45,0,0,0,1.23,6.43,13,13,0,0,0,3.057,4.693,13,13,0,0,0,4.693,3.057,19.489,19.489,0,0,0,6.43,1.232c2.827.128,3.729.159,10.924.159s8.1-.031,10.924-.159a19.48,19.48,0,0,0,6.43-1.232,12.986,12.986,0,0,0,4.693-3.057,13,13,0,0,0,3.056-4.693,19.488,19.488,0,0,0,1.232-6.43c.124-2.737.157-3.671.159-10.266v-1.313c0-6.6-.035-7.531-.159-10.268a19.488,19.488,0,0,0-1.232-6.43,13,13,0,0,0-3.056-4.693,12.957,12.957,0,0,0-4.693-3.055,19.434,19.434,0,0,0-6.43-1.233c-2.737-.124-3.671-.157-10.266-.159Zm17.977,12.352a3.179,3.179,0,0,1-3.179,3.179,3.179,3.179,0,0,1-3.179-3.179,3.179,3.179,0,0,1,3.179-3.179,3.179,3.179,0,0,1,3.179,3.179Zm-17.321,22.974a8.832,8.832,0,0,1-8.831-8.831,8.832,8.832,0,0,1,8.831-8.831,8.831,8.831,0,0,1,8.831,8.831,8.831,8.831,0,0,1-8.831,8.831Zm0-22.437a13.607,13.607,0,0,1,13.606,13.606A13.607,13.607,0,0,1-128.191,301.7a13.605,13.605,0,0,1-13.6-13.606,13.605,13.605,0,0,1,13.6-13.606Zm0-8.114c7.074,0,7.912.026,10.706.153a14.7,14.7,0,0,1,4.919.912,8.219,8.219,0,0,1,3.046,1.982,8.235,8.235,0,0,1,1.982,3.046,14.721,14.721,0,0,1,.912,4.919c.128,2.794.153,3.632.153,10.706s-.026,7.912-.153,10.706a14.71,14.71,0,0,1-.912,4.919,8.22,8.22,0,0,1-1.982,3.046,8.178,8.178,0,0,1-3.046,1.982,14.623,14.623,0,0,1-4.919.912c-2.794.128-3.631.155-10.706.155s-7.912-.028-10.706-.155a14.634,14.634,0,0,1-4.919-.912,8.192,8.192,0,0,1-3.046-1.982,8.219,8.219,0,0,1-1.982-3.046,14.705,14.705,0,0,1-.912-4.919c-.128-2.794-.154-3.633-.154-10.706s.026-7.912.154-10.706a14.716,14.716,0,0,1,.912-4.919,8.233,8.233,0,0,1,1.982-3.046,8.232,8.232,0,0,1,3.046-1.982,14.715,14.715,0,0,1,4.919-.912C-136.1,266.4-135.264,266.373-128.191,266.373Z" transform="translate(191.937 -224.346)" fill="#E57D33" fill-rule="evenodd"/>
  </g>
</svg>
