<svg id="Group_5838" data-name="Group 5838" xmlns="http://www.w3.org/2000/svg" width="127.492" height="127.492" viewBox="0 0 127.492 127.492">
  <circle id="Ellipse_33" data-name="Ellipse 33" cx="52.989" cy="52.989" r="52.989" transform="matrix(0.23, -0.973, 0.973, 0.23, 0, 103.143)" fill="#fff"/>
  <path id="Path_19104" data-name="Path 19104" d="M-224.209,314.608h-10.939V279.265h10.939v35.343Zm-5.523-39.972h0a6.494,6.494,0,0,1-6.468-6.522,6.5,6.5,0,0,1,6.468-6.52,6.5,6.5,0,0,1,6.47,6.52,6.5,6.5,0,0,1-6.47,6.522Zm46.52,39.972H-194.1V296.054c0-5.087-1.934-7.927-5.956-7.927-4.379,0-6.665,2.958-6.665,7.927v18.555h-10.492V279.265h10.492v4.759a12.323,12.323,0,0,1,10.649-5.839c7.493,0,12.859,4.578,12.859,14.044Z" transform="translate(273.451 -224.354)" fill="#E57D33" fill-rule="evenodd"/>
</svg>
