<svg xmlns="http://www.w3.org/2000/svg" width="1199" height="505" viewBox="0 0 1199 505">
  <g id="Group_6031" data-name="Group 6031" transform="translate(4571 -7870)">
    <rect id="Rectangle_910" data-name="Rectangle 910" width="1199" height="505" transform="translate(-4571 7870)" fill="#fff"/>
    <line id="Line_49" data-name="Line 49" y2="141.881" transform="translate(-4511.881 7921.235)" fill="none" stroke="#797979" stroke-width="4"/>
    <path id="Path_19128" data-name="Path 19128" d="M-6020.608,7674.393s124.024-9.091,51.616,70.836" transform="translate(1508.559 247.417)" fill="none" stroke="#797979" stroke-width="4"/>
    <line id="Line_50" data-name="Line 50" y2="141.881" transform="translate(-4401.532 7921.235)" fill="none" stroke="#797979" stroke-width="4"/>
    <path id="Path_19137" data-name="Path 19137" d="M0,0-.006,142.341" transform="translate(-4354.237 7921.235)" fill="none" stroke="#797979" stroke-width="4"/>
    <path id="Path_19138" data-name="Path 19138" d="M78.823,0S18.709-.027-1-.027" transform="translate(-4354.237 8063.115)" fill="none" stroke="#797979" stroke-width="4"/>
    <line id="Line_53" data-name="Line 53" y2="141.881" transform="translate(-4243.887 7921.235)" fill="none" stroke="#797979" stroke-width="4"/>
    <line id="Line_54" data-name="Line 54" y1="71.558" x2="71.387" transform="translate(-4243.887 7921.5)" fill="none" stroke="#797979" stroke-width="4"/>
    <line id="Line_55" data-name="Line 55" x2="70.94" y2="70.94" transform="translate(-4243.887 7992.176)" fill="none" stroke="#797979" stroke-width="4"/>
    <line id="Line_56" data-name="Line 56" y1="141.881" x2="55.176" transform="translate(-4149.299 7921.235)" fill="none" stroke="#797979" stroke-width="4"/>
    <path id="Path_19136" data-name="Path 19136" d="M0,0,47.294,141.881" transform="translate(-4094.125 7921.235)" fill="none" stroke="#797979" stroke-width="4"/>
    <line id="Line_58" data-name="Line 58" x1="86.705" transform="translate(-4133.534 8063.115)" fill="none" stroke="#797979" stroke-width="4"/>
    <path id="Path_19135" data-name="Path 19135" d="M0,0S.015,106.861.015,142.331" transform="translate(-3952.243 7921.235)" fill="none" stroke="#797979" stroke-width="4"/>
    <path id="Path_19139" data-name="Path 19139" d="M78.823,0S18.736-.168-.97-.168" transform="translate(-3952.243 8063.115)" fill="none" stroke="#797979" stroke-width="4"/>
    <line id="Line_62" data-name="Line 62" y2="149.763" transform="translate(-3802.48 7913.352)" fill="none" stroke="#797979" stroke-width="4"/>
    <path id="Path_19134" data-name="Path 19134" d="M0,0,86.338,149.494" transform="translate(-3802.48 7913.352)" fill="none" stroke="#797979" stroke-width="4"/>
    <path id="Path_19133" data-name="Path 19133" d="M0,0,.032,150.245" transform="translate(-3715.776 7913.352)" fill="none" stroke="#797979" stroke-width="4"/>
    <line id="Line_65" data-name="Line 65" x1="70.94" transform="translate(-3786.715 8063.115)" fill="none" stroke="#797979" stroke-width="4"/>
    <line id="Line_66" data-name="Line 66" y2="149.763" transform="translate(-3668.482 7913.352)" fill="none" stroke="#797979" stroke-width="4"/>
    <path id="Path_19132" data-name="Path 19132" d="M0,0V126.116" transform="translate(-3566.012 7913.352)" fill="none" stroke="#797979" stroke-width="4"/>
    <line id="Line_71" data-name="Line 71" x2="772.461" transform="translate(-4370.002 8197.113)" fill="none" stroke="#797979" stroke-width="4"/>
    <path id="Path_19130" data-name="Path 19130" d="M27.933,7.321a3.62,3.62,0,0,1-.054.647,2.057,2.057,0,0,1-.148.5.78.78,0,0,1-.242.31.519.519,0,0,1-.31.108,2.315,2.315,0,0,1-1.064-.539,15.186,15.186,0,0,0-1.98-1.172A18.589,18.589,0,0,0,21.13,6a14.429,14.429,0,0,0-4.189-.539,12.785,12.785,0,0,0-5.523,1.145,11.894,11.894,0,0,0-4.1,3.139,13.841,13.841,0,0,0-2.546,4.728A19.2,19.2,0,0,0,3.9,20.361a18.459,18.459,0,0,0,1,6.291A13.464,13.464,0,0,0,7.66,31.313a11.715,11.715,0,0,0,4.2,2.9,13.927,13.927,0,0,0,5.321,1,16.159,16.159,0,0,0,3.772-.458,13.774,13.774,0,0,0,3.583-1.4V22.058H15.648A.7.7,0,0,1,15,21.681a2.2,2.2,0,0,1-.216-1.078,3.564,3.564,0,0,1,.054-.66A1.362,1.362,0,0,1,15,19.485a.773.773,0,0,1,.269-.269.735.735,0,0,1,.377-.094H26.317a1.782,1.782,0,0,1,.512.081,1.422,1.422,0,0,1,.5.269,1.278,1.278,0,0,1,.364.525,2.217,2.217,0,0,1,.135.822V33.778a2.727,2.727,0,0,1-.2,1.1,2.1,2.1,0,0,1-.929.876,16.98,16.98,0,0,1-1.94.916,19.517,19.517,0,0,1-2.506.835,21.8,21.8,0,0,1-2.6.512,19.356,19.356,0,0,1-2.573.175A18.456,18.456,0,0,1,10,36.916a14.529,14.529,0,0,1-5.254-3.61,15.863,15.863,0,0,1-3.273-5.55,21.286,21.286,0,0,1-1.132-7.1,21.486,21.486,0,0,1,1.226-7.422A16.567,16.567,0,0,1,5.02,7.51,15.4,15.4,0,0,1,10.34,3.833a17.438,17.438,0,0,1,6.843-1.307,17.5,17.5,0,0,1,3.57.35,21.2,21.2,0,0,1,3.031.849A13.036,13.036,0,0,1,26.074,4.8a7.654,7.654,0,0,1,1.28.916,1.913,1.913,0,0,1,.458.66A2.819,2.819,0,0,1,27.933,7.321ZM72.952,37.2a.716.716,0,0,1-.067.323.541.541,0,0,1-.256.229,1.865,1.865,0,0,1-.525.148,5.525,5.525,0,0,1-.849.054,6.093,6.093,0,0,1-.768-.04,1.447,1.447,0,0,1-.525-.162,1.009,1.009,0,0,1-.35-.323,2.217,2.217,0,0,1-.242-.525l-3.26-8.46q-.566-1.428-1.212-2.694a8.8,8.8,0,0,0-1.563-2.2,6.651,6.651,0,0,0-2.209-1.468,8.038,8.038,0,0,0-3.1-.539h-3.61V37.253a.565.565,0,0,1-.081.3.555.555,0,0,1-.269.216,2.292,2.292,0,0,1-.5.135,4.789,4.789,0,0,1-.795.054,4.84,4.84,0,0,1-.781-.054,2.3,2.3,0,0,1-.512-.135.555.555,0,0,1-.269-.216.565.565,0,0,1-.081-.3V4.627a1.531,1.531,0,0,1,.512-1.334,1.727,1.727,0,0,1,1-.364h6.547q1.293,0,2.142.067t1.549.175A11.8,11.8,0,0,1,66.351,4.3,8.14,8.14,0,0,1,68.8,6.23a7.635,7.635,0,0,1,1.441,2.586,9.953,9.953,0,0,1,.471,3.112,9.152,9.152,0,0,1-.485,3.085,7.53,7.53,0,0,1-1.374,2.4A8.809,8.809,0,0,1,66.729,19.2a14.017,14.017,0,0,1-2.721,1.266,7.083,7.083,0,0,1,1.6,1,7.782,7.782,0,0,1,1.32,1.428,13.308,13.308,0,0,1,1.145,1.926q.539,1.091,1.078,2.438l3.26,8.136q.35.943.445,1.293A2.233,2.233,0,0,1,72.952,37.2ZM67.16,12.279a6.851,6.851,0,0,0-1-3.785,5.61,5.61,0,0,0-3.341-2.223,10.383,10.383,0,0,0-1.7-.31q-.916-.094-2.4-.094H54.416v12.8h5.011a10.764,10.764,0,0,0,3.475-.5A6.879,6.879,0,0,0,65.314,16.8a5.2,5.2,0,0,0,1.4-2.021A6.935,6.935,0,0,0,67.16,12.279Zm45.827,24.059a3.183,3.183,0,0,1-.054.62,1.318,1.318,0,0,1-.175.458.85.85,0,0,1-.283.283.683.683,0,0,1-.35.094H95.8a1.727,1.727,0,0,1-1-.364,1.531,1.531,0,0,1-.512-1.334V4.627A1.531,1.531,0,0,1,94.8,3.294a1.727,1.727,0,0,1,1-.364h16.084a.683.683,0,0,1,.35.094.745.745,0,0,1,.269.283,1.525,1.525,0,0,1,.162.471,3.564,3.564,0,0,1,.054.66,3.183,3.183,0,0,1-.054.62,1.353,1.353,0,0,1-.162.445.773.773,0,0,1-.269.269.683.683,0,0,1-.35.094H97.576V18.125h12.339a.735.735,0,0,1,.377.094.773.773,0,0,1,.269.269,1.362,1.362,0,0,1,.162.458,3.563,3.563,0,0,1,.054.66,2.977,2.977,0,0,1-.054.606,1.193,1.193,0,0,1-.162.418.7.7,0,0,1-.269.242.833.833,0,0,1-.377.081H97.576v13.9h14.548a.683.683,0,0,1,.35.094.893.893,0,0,1,.283.269,1.192,1.192,0,0,1,.175.458A3.564,3.564,0,0,1,112.987,36.337Zm31.575-12.285v13.2a.565.565,0,0,1-.081.3.555.555,0,0,1-.269.216,2.3,2.3,0,0,1-.512.135,4.84,4.84,0,0,1-.781.054,4.789,4.789,0,0,1-.795-.054,2.6,2.6,0,0,1-.512-.135.554.554,0,0,1-.283-.216.565.565,0,0,1-.081-.3v-13.2L131.226,4.035a2.234,2.234,0,0,1-.216-.647.417.417,0,0,1,.121-.377.963.963,0,0,1,.5-.189,6.028,6.028,0,0,1,.889-.054,9.032,9.032,0,0,1,.956.04,2.728,2.728,0,0,1,.593.121.73.73,0,0,1,.337.216,2.524,2.524,0,0,1,.216.323l5.334,10.857q.754,1.536,1.5,3.179l1.5,3.314H143q.7-1.59,1.428-3.206t1.482-3.206L151.3,3.469a1.392,1.392,0,0,1,.189-.323.747.747,0,0,1,.3-.216,1.924,1.924,0,0,1,.5-.121,6.091,6.091,0,0,1,.768-.04,8.257,8.257,0,0,1,1.051.054,1.053,1.053,0,0,1,.566.2.434.434,0,0,1,.135.391,1.961,1.961,0,0,1-.216.62Zm73.927,12.231a3.351,3.351,0,0,1-.054.647,1.711,1.711,0,0,1-.162.471.726.726,0,0,1-.269.3.735.735,0,0,1-.377.094H202.513a1.727,1.727,0,0,1-1-.364A1.531,1.531,0,0,1,201,36.095V3.469a.565.565,0,0,1,.081-.3.555.555,0,0,1,.269-.216,2.3,2.3,0,0,1,.512-.135,4.841,4.841,0,0,1,.781-.054,4.789,4.789,0,0,1,.795.054,2.294,2.294,0,0,1,.5.135.555.555,0,0,1,.269.216.565.565,0,0,1,.081.3V34.8h13.336A.735.735,0,0,1,218,34.9a.774.774,0,0,1,.269.269,1.362,1.362,0,0,1,.162.458A3.568,3.568,0,0,1,218.489,36.283Zm22.712.97a.565.565,0,0,1-.081.3.555.555,0,0,1-.269.216,2.293,2.293,0,0,1-.5.135,4.789,4.789,0,0,1-.795.054,4.839,4.839,0,0,1-.781-.054,2.3,2.3,0,0,1-.512-.135.555.555,0,0,1-.269-.216.565.565,0,0,1-.081-.3V3.469a.505.505,0,0,1,.094-.3.637.637,0,0,1,.3-.216,2.6,2.6,0,0,1,.512-.135,4.393,4.393,0,0,1,.741-.054,4.789,4.789,0,0,1,.795.054,2.294,2.294,0,0,1,.5.135.555.555,0,0,1,.269.216.565.565,0,0,1,.081.3ZM290.207,36.2a1.94,1.94,0,0,1-.148.808,1.548,1.548,0,0,1-.377.525,1.31,1.31,0,0,1-.512.283,1.92,1.92,0,0,1-.525.081h-.674a3.381,3.381,0,0,1-.983-.135,2.558,2.558,0,0,1-.862-.471,4.858,4.858,0,0,1-.835-.9,15.629,15.629,0,0,1-.929-1.455L272.075,13.168q-.916-1.59-1.845-3.273t-1.765-3.273h-.027q.027,1.967.027,4.028v26.6a.565.565,0,0,1-.081.3.555.555,0,0,1-.269.216,2.293,2.293,0,0,1-.5.135,4.789,4.789,0,0,1-.795.054,4.84,4.84,0,0,1-.781-.054,2.3,2.3,0,0,1-.512-.135.555.555,0,0,1-.269-.216.565.565,0,0,1-.081-.3V4.627a1.531,1.531,0,0,1,.512-1.334,1.727,1.727,0,0,1,1-.364h1.347a4.534,4.534,0,0,1,1.078.108,2.226,2.226,0,0,1,.781.364,3.177,3.177,0,0,1,.687.727,12.76,12.76,0,0,1,.741,1.2L280.723,22q.889,1.563,1.684,3t1.549,2.829q.754,1.387,1.5,2.735t1.468,2.721h.027q-.027-2.263-.027-4.715v-25a.565.565,0,0,1,.081-.3.631.631,0,0,1,.269-.229,1.588,1.588,0,0,1,.5-.135,6.359,6.359,0,0,1,.795-.04,6.164,6.164,0,0,1,.754.04,1.613,1.613,0,0,1,.512.135.738.738,0,0,1,.283.229.505.505,0,0,1,.094.3Zm42.675.135a3.184,3.184,0,0,1-.054.62,1.319,1.319,0,0,1-.175.458.85.85,0,0,1-.283.283.683.683,0,0,1-.35.094H315.693a1.727,1.727,0,0,1-1-.364,1.531,1.531,0,0,1-.512-1.334V4.627a1.531,1.531,0,0,1,.512-1.334,1.727,1.727,0,0,1,1-.364h16.084a.683.683,0,0,1,.35.094.745.745,0,0,1,.269.283,1.527,1.527,0,0,1,.162.471,3.565,3.565,0,0,1,.054.66,3.184,3.184,0,0,1-.054.62,1.354,1.354,0,0,1-.162.445.774.774,0,0,1-.269.269.683.683,0,0,1-.35.094H317.471V18.125H329.81a.735.735,0,0,1,.377.094.773.773,0,0,1,.269.269,1.362,1.362,0,0,1,.162.458,3.565,3.565,0,0,1,.054.66,2.978,2.978,0,0,1-.054.606,1.193,1.193,0,0,1-.162.418.694.694,0,0,1-.269.242.833.833,0,0,1-.377.081H317.471v13.9H332.02a.683.683,0,0,1,.35.094.893.893,0,0,1,.283.269,1.192,1.192,0,0,1,.175.458A3.565,3.565,0,0,1,332.882,36.337Z" transform="translate(-4150.865 8289.379)" fill="#797979" stroke="#797979" stroke-width="1"/>
    <line id="Line_72" data-name="Line 72" y1="149.763" transform="translate(-3849.772 7917.292)" fill="none" stroke="#797979" stroke-width="4"/>
    <line id="Line_73" data-name="Line 73" y1="141.881" x2="55.176" transform="translate(-3534.482 7921.235)" fill="none" stroke="#797979" stroke-width="4"/>
    <line id="Line_74" data-name="Line 74" x2="47.294" y2="141.881" transform="translate(-3479.307 7921.235)" fill="none" stroke="#797979" stroke-width="4"/>
    <line id="Line_75" data-name="Line 75" x1="86.705" transform="translate(-3518.719 8063.115)" fill="none" stroke="#797979" stroke-width="4"/>
    <path id="Path_19131" data-name="Path 19131" d="M-5833.8,7763.769l-.5,6.011c-.049.113-26.27,53.68-78.165-7.732" transform="translate(2267.893 273.85)" fill="none" stroke="#797979" stroke-width="4"/>
  </g>
</svg>
