<svg xmlns="http://www.w3.org/2000/svg" width="18.19" height="21.461" viewBox="0 0 18.19 21.461">
  <g id="password" transform="matrix(0.966, -0.259, 0.259, 0.966, -61.819, 20.156)">
    <g id="Group_32" data-name="Group 32" transform="translate(64)">
      <g id="Group_31" data-name="Group 31" transform="translate(0)">
        <path id="Path_109" data-name="Path 109" d="M213.964,280.115l-.243,2.186a.386.386,0,0,0,.383.428h1.542a.386.386,0,0,0,.383-.428l-.243-2.186a1.525,1.525,0,0,0,.631-1.24,1.542,1.542,0,0,0-3.083,0A1.525,1.525,0,0,0,213.964,280.115Zm.911-2.011a.768.768,0,0,1,.333,1.462.386.386,0,0,0-.215.39l.223,2h-.68l.223-2a.386.386,0,0,0-.215-.39.768.768,0,0,1,.333-1.462Z" transform="translate(-207.937 -267.312)" fill="#fff"/>
        <path id="Path_110" data-name="Path 110" d="M77.49,6.938H76.333V5.4a5.4,5.4,0,1,0-10.792,0V6.938H64.385A.385.385,0,0,0,64,7.323v9.635A1.543,1.543,0,0,0,65.542,18.5H76.333a1.543,1.543,0,0,0,1.542-1.542V7.323A.385.385,0,0,0,77.49,6.938ZM66.313,5.4a4.625,4.625,0,1,1,9.25,0V6.938h-.771V5.4a3.854,3.854,0,0,0-7.708,0V6.938h-.771Zm7.708,0V6.938H67.854V5.4a3.083,3.083,0,1,1,6.167,0ZM77.1,16.958a.772.772,0,0,1-.771.771H65.542a.772.772,0,0,1-.771-.771V7.708H77.1Z" transform="translate(-64)" fill="#fff"/>
      </g>
    </g>
  </g>
</svg>
