<svg id="Group_5837" data-name="Group 5837" xmlns="http://www.w3.org/2000/svg" width="127.492" height="127.492" viewBox="0 0 127.492 127.492">
  <circle id="Ellipse_32" data-name="Ellipse 32" cx="52.989" cy="52.989" r="52.989" transform="matrix(0.23, -0.973, 0.973, 0.23, 0, 103.143)" fill="#fff"/>
  <path id="Path_19103" data-name="Path 19103" d="M-32.635,275.2c.688,15.291-10.717,32.342-30.9,32.342A30.747,30.747,0,0,1-80.2,302.656a21.856,21.856,0,0,0,16.095-4.5,10.881,10.881,0,0,1-10.156-7.55,10.866,10.866,0,0,0,4.909-.186,10.882,10.882,0,0,1-8.719-10.8,10.843,10.843,0,0,0,4.925,1.359,10.885,10.885,0,0,1-3.365-14.515A30.865,30.865,0,0,0-54.1,277.826a10.883,10.883,0,0,1,10.593-13.349,10.856,10.856,0,0,1,7.933,3.434,21.815,21.815,0,0,0,6.9-2.639,10.924,10.924,0,0,1-4.78,6.016,21.735,21.735,0,0,0,6.242-1.715A21.969,21.969,0,0,1-32.635,275.2Z" transform="translate(117.451 -222.264)" fill="#E57D33" fill-rule="evenodd"/>
</svg>
