<svg xmlns="http://www.w3.org/2000/svg" width="61.021" height="18.5" viewBox="0 0 61.021 18.5">
  <g id="visa" transform="translate(0 -175.6)">
    <path id="Path_66" data-name="Path 66" d="M184.8,197.835l3.1-17.435h4.843l-3,17.435Z" transform="translate(-162.426 -4.219)" fill="#3c58bf"/>
    <path id="Path_67" data-name="Path 67" d="M184.8,197.835l3.971-17.435h3.971l-3,17.435Z" transform="translate(-162.426 -4.219)" fill="#293688"/>
    <path id="Path_68" data-name="Path 68" d="M262.819,176.375a12.285,12.285,0,0,0-4.456-.775c-4.843,0-8.33,2.421-8.33,5.908,0,2.615,2.421,3.971,4.359,4.843s2.518,1.453,2.518,2.228c0,1.162-1.55,1.743-2.906,1.743a10.528,10.528,0,0,1-4.649-.969l-.678-.291L248,193.035a15.705,15.705,0,0,0,5.521.969c5.133,0,8.524-2.421,8.524-6.1,0-2.034-1.259-3.584-4.165-4.843-1.743-.872-2.809-1.356-2.809-2.228,0-.775.872-1.55,2.809-1.55a8.884,8.884,0,0,1,3.681.678l.484.194.775-3.777Z" transform="translate(-217.974)" fill="#3c58bf"/>
    <path id="Path_69" data-name="Path 69" d="M262.819,176.375a12.285,12.285,0,0,0-4.456-.775c-4.843,0-7.458,2.421-7.458,5.908,0,2.615,1.55,3.971,3.487,4.843s2.518,1.453,2.518,2.228c0,1.162-1.55,1.743-2.906,1.743a10.528,10.528,0,0,1-4.649-.969l-.678-.291L248,193.035a15.705,15.705,0,0,0,5.521.969c5.133,0,8.524-2.421,8.524-6.1,0-2.034-1.259-3.584-4.165-4.843-1.743-.872-2.809-1.356-2.809-2.228,0-.775.872-1.55,2.809-1.55a8.884,8.884,0,0,1,3.681.678l.484.194.775-3.777Z" transform="translate(-217.974)" fill="#293688"/>
    <path id="Path_70" data-name="Path 70" d="M368.183,180.4c-1.162,0-2.034.1-2.518,1.259L358.4,197.835h5.23l.969-2.906h6.2l.581,2.906h4.649L371.96,180.4Zm-2.228,11.623c.291-.872,1.937-5.133,1.937-5.133s.387-1.065.678-1.743l.291,1.647s.969,4.359,1.162,5.327h-4.068Z" transform="translate(-315.007 -4.219)" fill="#3c58bf"/>
    <path id="Path_71" data-name="Path 71" d="M369.345,180.4c-1.162,0-2.034.1-2.518,1.259L358.4,197.835h5.23l.969-2.906h6.2l.581,2.906h4.649L371.96,180.4Zm-3.39,11.623c.387-.969,1.937-5.133,1.937-5.133s.387-1.065.678-1.743l.291,1.647s.969,4.359,1.162,5.327h-4.068Z" transform="translate(-315.007 -4.219)" fill="#293688"/>
    <path id="Path_72" data-name="Path 72" d="M58.464,193.307l-.484-2.518a14.041,14.041,0,0,0-6.78-7.652l4.359,15.5h5.23L68.635,181.2H63.4Z" transform="translate(-45.001 -4.922)" fill="#3c58bf"/>
    <path id="Path_73" data-name="Path 73" d="M58.464,193.307l-.484-2.518a14.041,14.041,0,0,0-6.78-7.652l4.359,15.5h5.23L68.635,181.2H64.373Z" transform="translate(-45.001 -4.922)" fill="#293688"/>
    <path id="Path_74" data-name="Path 74" d="M0,180.4l.872.194c6.2,1.453,10.461,5.133,12.107,9.492l-1.743-8.233c-.291-1.162-1.162-1.453-2.228-1.453Z" transform="translate(0 -4.219)" fill="#ffbc00"/>
    <path id="Path_75" data-name="Path 75" d="M0,180.4H0c6.2,1.453,11.332,5.23,12.979,9.589l-1.647-6.877a2.364,2.364,0,0,0-2.325-1.84Z" transform="translate(0 -4.219)" fill="#f7981d"/>
    <path id="Path_76" data-name="Path 76" d="M0,180.4H0c6.2,1.453,11.332,5.23,12.979,9.589l-1.162-3.777c-.291-1.162-.678-2.325-2.034-2.809Z" transform="translate(0 -4.219)" fill="#ed7c00"/>
    <g id="Group_28" data-name="Group 28" transform="translate(6.296 178.118)">
      <path id="Path_77" data-name="Path 77" d="M64.01,206.086l-3.293-3.293-1.55,3.681-.387-2.421A14.041,14.041,0,0,0,52,196.4l4.359,15.5h5.23Z" transform="translate(-52 -196.4)" fill="#051244"/>
      <path id="Path_78" data-name="Path 78" d="M189.74,293.462l-4.165-4.262-.775,4.262Z" transform="translate(-168.721 -277.964)" fill="#051244"/>
      <path id="Path_79" data-name="Path 79" d="M256.427,274.8h0c.387.387.581.678.484,1.065,0,1.162-1.55,1.743-2.906,1.743a10.528,10.528,0,0,1-4.649-.969l-.678-.291L248,280.321a15.705,15.705,0,0,0,5.521.969c3.1,0,5.618-.872,7.071-2.421Z" transform="translate(-224.27 -265.308)" fill="#051244"/>
      <path id="Path_80" data-name="Path 80" d="M364,232.288h4.552l.969-2.906h6.2l.581,2.906h4.649l-1.647-7.071-5.812-5.618.291,1.55s.969,4.359,1.162,5.327h-4.068c.387-.969,1.937-5.133,1.937-5.133s.387-1.065.678-1.743" transform="translate(-326.225 -216.791)" fill="#051244"/>
    </g>
  </g>
</svg>
