<svg xmlns="http://www.w3.org/2000/svg" width="512" height="512" viewBox="0 0 512 512">
  <path id="facebook" d="M452,0H60A60.066,60.066,0,0,0,0,60V452a60.066,60.066,0,0,0,60,60H452a60.066,60.066,0,0,0,60-60V60A60.066,60.066,0,0,0,452,0Zm20,452a20.024,20.024,0,0,1-20,20H334V326h64.027l7.461-62H334V197c0-17.1,12.9-30,30-30h45V109c-11.844-1.672-34.691-4-45-4-23.324,0-46.7,9.84-64.141,26.992C281.895,149.664,272,172.813,272,197.176V264H207v62h65V472H60a20.024,20.024,0,0,1-20-20V60A20.024,20.024,0,0,1,60,40H452a20.024,20.024,0,0,1,20,20Zm0,0" fill="#E57D33"/>
</svg>
