<svg xmlns="http://www.w3.org/2000/svg" width="671.193" height="533.993" viewBox="0 0 671.193 533.993">
  <g id="Group_5796" data-name="Group 5796" transform="translate(-750.056 743.699)">
    <rect id="Rectangle_746" data-name="Rectangle 746" width="306" height="162" transform="translate(935 -680)" fill="#e57d33"/>
    <path id="Path_18865" data-name="Path 18865" d="M573.122-118.422A34.308,34.308,0,0,1,558.66-121.4a35.526,35.526,0,0,1-11.15-7.907,34.523,34.523,0,0,1-7.163-11.421,37.262,37.262,0,0,1-2.5-13.516,36.9,36.9,0,0,1,2.838-14.8,38.8,38.8,0,0,1,7.636-11.556,48.588,48.588,0,0,1,11.083-8.583,70.862,70.862,0,0,1,13.11-5.812,88.5,88.5,0,0,1,13.651-3.311,82.657,82.657,0,0,1,12.908-1.081q1.216,0,3.447.135t4.663.338q2.433.2,4.663.338t3.582.135l.135-19.6a62.986,62.986,0,0,0-.743-10.677,13.9,13.9,0,0,0-2.636-6.488,9.712,9.712,0,0,0-5-3.176,29.389,29.389,0,0,0-7.839-.879,30.711,30.711,0,0,0-11.353,2.365,88.377,88.377,0,0,0-11.759,5.744q-5.812,3.379-11.015,7.1t-8.988,6.285H551.9l-5.542-26.356q4.6-2.162,10.2-4.257a123.7,123.7,0,0,1,12.1-3.784,120.494,120.494,0,0,1,13.786-2.7,109.98,109.98,0,0,1,15.138-1.014,91.013,91.013,0,0,1,19.192,2.095,52.419,52.419,0,0,1,17.5,7.1,39.136,39.136,0,0,1,12.637,13.245q4.866,8.245,4.73,20.409l-.811,67.038a8.911,8.911,0,0,0,.676,3.582,7.1,7.1,0,0,0,2.095,2.7,9.9,9.9,0,0,0,3.514,1.757,17.794,17.794,0,0,0,4.933.608,33.811,33.811,0,0,0,4.663-.541q3.311-.541,6.285-1.216h2.7v9.461a36.474,36.474,0,0,1-5.542,3.379,80.13,80.13,0,0,1-8.245,3.649,78,78,0,0,1-9.664,2.974,41.428,41.428,0,0,1-9.664,1.216,51.833,51.833,0,0,1-10.948-1.081,24.862,24.862,0,0,1-8.718-3.582,17.016,17.016,0,0,1-5.812-6.758,23.935,23.935,0,0,1-2.095-10.61h0a50.839,50.839,0,0,1-10.542,11.961,44.574,44.574,0,0,1-11.151,6.623,42.759,42.759,0,0,1-10.813,2.838A81.635,81.635,0,0,1,573.122-118.422ZM593.8-138.83a35.709,35.709,0,0,0,5.744-.473,22.782,22.782,0,0,0,5.744-1.757,23.157,23.157,0,0,0,5.339-3.379,22.3,22.3,0,0,0,4.528-5.339l.27-38.52a81.49,81.49,0,0,0-16.624,1.554,36.868,36.868,0,0,0-12.637,4.933,23.629,23.629,0,0,0-8.042,8.583,25.758,25.758,0,0,0-2.838,12.5,28.39,28.39,0,0,0,1.689,10.542,19.416,19.416,0,0,0,4.325,6.758,14.549,14.549,0,0,0,5.947,3.582A22.306,22.306,0,0,0,593.8-138.83Zm134.752,21.625a114.242,114.242,0,0,1-14.8-.878,122.247,122.247,0,0,1-12.367-2.23q-5.677-1.352-10.542-2.906t-9.461-2.906v-38.52h10.948l5.136,15a9.681,9.681,0,0,0,1.689,3.041,17.3,17.3,0,0,0,2.568,2.568,31.493,31.493,0,0,0,2.906,2.095,31.847,31.847,0,0,0,2.838,1.622,63.536,63.536,0,0,0,5.812,2.636,74.345,74.345,0,0,0,7.569,2.568q4.055,1.149,8.177,1.96a40.344,40.344,0,0,0,7.772.811,30.36,30.36,0,0,0,7.772-.946,15.231,15.231,0,0,0,6.217-3.244,15.391,15.391,0,0,0,4.122-6.014,25.067,25.067,0,0,0,1.487-9.258,12.851,12.851,0,0,0-2.162-7.636,19.18,19.18,0,0,0-5.677-5.2,36.338,36.338,0,0,0-7.907-3.582q-4.393-1.419-8.718-2.636-6.758-1.892-11.624-3.379t-10-3.109a45.491,45.491,0,0,1-11.353-5.339,34.225,34.225,0,0,1-8.515-7.974,33.817,33.817,0,0,1-5.339-10.745,46.422,46.422,0,0,1-1.825-13.381,32.893,32.893,0,0,1,4.393-16.692,41.268,41.268,0,0,1,12.1-13.11,60.21,60.21,0,0,1,18.044-8.515,78.462,78.462,0,0,1,22.233-3.041q7.3,0,12.772.405t10.137,1.149q4.663.743,8.853,1.689t8.92,2.027l2.162,38.52H771.4l-5.947-14.6a13.228,13.228,0,0,0-3.514-5.068,24.832,24.832,0,0,0-5.271-3.717,40.78,40.78,0,0,0-5.068-2.23q-2.771-1.014-5.879-1.825a59.745,59.745,0,0,0-6.285-1.284,42.618,42.618,0,0,0-6.285-.473,17.991,17.991,0,0,0-5.406.946,17.418,17.418,0,0,0-5.541,2.973,16.57,16.57,0,0,0-4.325,5.339,16.967,16.967,0,0,0-1.757,8.042,17.864,17.864,0,0,0,1.689,8.177,16.829,16.829,0,0,0,4.46,5.541,23.564,23.564,0,0,0,6.217,3.582q3.447,1.352,6.961,2.433,5.812,1.892,11.015,3.582t8.718,2.771a97.063,97.063,0,0,1,13.516,5.339,44.426,44.426,0,0,1,10.745,7.231,29.5,29.5,0,0,1,7.028,9.867,32.986,32.986,0,0,1,2.5,13.381q0,11.759-5.068,20.274a42.845,42.845,0,0,1-13.516,14.056,61.171,61.171,0,0,1-19.328,8.177A95.249,95.249,0,0,1,728.553-117.205Zm7.7-151.106a20.667,20.667,0,0,1-10.677-2.7,27.358,27.358,0,0,1-8.38-8.109l-26.221-37.709,6.893-4.866,38.52,30.275,38.385-30.005,7.028,4.731L755.45-279.124A27.044,27.044,0,0,1,747-271.014,21.033,21.033,0,0,1,736.257-268.311Zm-351,479.66a46.128,46.128,0,0,1-21.287-4.8,46.77,46.77,0,0,1-15.949-13.313,61.13,61.13,0,0,1-10-20.139,89.082,89.082,0,0,1-3.447-25.41,97.5,97.5,0,0,1,4.122-28.721,72.363,72.363,0,0,1,11.894-23.45,56.755,56.755,0,0,1,19.057-15.813,55.433,55.433,0,0,1,25.748-5.812,46.494,46.494,0,0,1,10.475,1.081A38.1,38.1,0,0,1,421,82.07a58.663,58.663,0,0,1,5.474,4.8V36.725a10.812,10.812,0,0,0-1.622-6.015q-1.622-2.5-6.623-3.987l-14.056-4.055V16.181L462.7,4.422v175.3a10.48,10.48,0,0,0,1.622,5.947q1.622,2.433,6.758,3.92l12.434,3.514v6.488l-53.387,11.759h-2.7v-22.3h0a56.479,56.479,0,0,1-11.894,12.434A51.793,51.793,0,0,1,403.9,208.1a41.37,41.37,0,0,1-10.407,2.7A76.6,76.6,0,0,1,385.253,211.348Zm18.381-22.436q2.568,0,5.677-.2a27.431,27.431,0,0,0,6.217-1.149,23.585,23.585,0,0,0,6.015-2.838,15.914,15.914,0,0,0,4.933-5.271V96.735A22.434,22.434,0,0,0,421.61,94.1a42.624,42.624,0,0,0-5.879-1.892,57.743,57.743,0,0,0-6.082-1.149,42.661,42.661,0,0,0-5.609-.405,25.63,25.63,0,0,0-13.989,3.717,30.627,30.627,0,0,0-9.8,10.137,48.673,48.673,0,0,0-5.812,15.07,85.867,85.867,0,0,0-1.892,18.381,114.8,114.8,0,0,0,1.757,21.017,53.112,53.112,0,0,0,5.474,16.084,25.429,25.429,0,0,0,23.855,13.854ZM526.763,48.348a22.612,22.612,0,0,1-8.785-1.689,22.1,22.1,0,0,1-7.028-4.6,21.841,21.841,0,0,1-4.73-6.893,21.044,21.044,0,0,1-1.757-8.583,20.25,20.25,0,0,1,1.757-8.38A21.788,21.788,0,0,1,517.978,6.787,22.614,22.614,0,0,1,526.763,5.1a23.116,23.116,0,0,1,8.853,1.689,23.564,23.564,0,0,1,7.231,4.6,21.012,21.012,0,0,1,4.866,6.825,20.251,20.251,0,0,1,1.757,8.38,21.045,21.045,0,0,1-1.757,8.583,20.817,20.817,0,0,1-4.866,6.893,23.565,23.565,0,0,1-7.231,4.6A23.116,23.116,0,0,1,526.763,48.348ZM490.135,200.671l13.921-4.325a9.1,9.1,0,0,0,4.393-2.771,7.287,7.287,0,0,0,1.689-4.933V106.2a9.338,9.338,0,0,0-1.825-5.879q-1.825-2.365-6.555-4.122l-11.083-4.055V85.652l55.685-10.677V188.642a6.976,6.976,0,0,0,1.689,4.933,10.651,10.651,0,0,0,4.393,2.771l12.7,4.325v7.974H490.135Zm83.663,0,13.651-4.325a9.565,9.565,0,0,0,4.325-2.771,7.114,7.114,0,0,0,1.757-4.933V106.466a13.075,13.075,0,0,0-.405-3.311,7.655,7.655,0,0,0-1.419-2.838,10.623,10.623,0,0,0-2.568-2.3,17.435,17.435,0,0,0-3.987-1.825l-12.435-4.055V85.652l55.55-10.677v29.6h0q3.109-5,6.69-10.475a58.191,58.191,0,0,1,8.177-9.934A41.04,41.04,0,0,1,653.608,76.8a30.282,30.282,0,0,1,13.583-2.906,59.98,59.98,0,0,1,6.825.338,52.815,52.815,0,0,1,5.339.879,42.5,42.5,0,0,1,4.6,1.284q2.162.743,4.46,1.554v40.277H677.464l-5.677-10.137a6.564,6.564,0,0,0-2.23-2.23,21.4,21.4,0,0,0-3.514-1.825,23.913,23.913,0,0,0-4.19-1.284,20.528,20.528,0,0,0-4.257-.473,58.852,58.852,0,0,0-7.569.473,29.889,29.889,0,0,0-7.1,1.825,28.493,28.493,0,0,0-6.69,3.784,36.7,36.7,0,0,0-6.488,6.488v73.8a7.486,7.486,0,0,0,1.69,5.068,8.286,8.286,0,0,0,4.393,2.636l16.084,4.325v7.974H573.8Zm193.681,11.624q-6.352,0-13.043-.473a128.276,128.276,0,0,1-13.786-1.757,119.138,119.138,0,0,1-14.6-3.649,108.61,108.61,0,0,1-15.205-6.15V36.725a9.886,9.886,0,0,0-1.757-5.947q-1.757-2.433-6.623-4.055l-12.434-4.055V16.181L747.07,4.422V96.6a54.4,54.4,0,0,1,11.286-12.367,51.593,51.593,0,0,1,11.353-6.825,39.543,39.543,0,0,1,10.34-2.906,68.208,68.208,0,0,1,8.245-.608,46.674,46.674,0,0,1,21.287,4.731,46.075,46.075,0,0,1,15.949,13.245,60.891,60.891,0,0,1,10,20.341,92.229,92.229,0,0,1,3.447,25.883,85.155,85.155,0,0,1-4.866,29.059,68.9,68.9,0,0,1-14.124,23.585,65.582,65.582,0,0,1-22.5,15.813Q784.238,212.295,767.479,212.295Zm.811-13.786a25.971,25.971,0,0,0,14.867-4.19,31.958,31.958,0,0,0,10.137-11.286,57.455,57.455,0,0,0,5.812-16.286A94.968,94.968,0,0,0,801,147.554a117.036,117.036,0,0,0-1.757-21.152,54.022,54.022,0,0,0-5.474-16.286A27.347,27.347,0,0,0,784.1,99.708a26.606,26.606,0,0,0-14.192-3.649q-2.568,0-5.677.2a27.429,27.429,0,0,0-6.217,1.149A20.463,20.463,0,0,0,752,100.452a17.254,17.254,0,0,0-4.933,5.744V188.1a19.517,19.517,0,0,0,3.784,3.582,41.5,41.5,0,0,0,5.339,3.379,32.584,32.584,0,0,0,6.082,2.5A21.09,21.09,0,0,0,768.29,198.508Zm139.077,12.84a49.4,49.4,0,0,1-16.354-2.636,33.222,33.222,0,0,1-13.043-8.245,38.77,38.77,0,0,1-8.583-14.394q-3.109-8.785-3.109-21.22V106.2a9.058,9.058,0,0,0-2.1-6.015,14.156,14.156,0,0,0-6.285-3.987l-11.083-4.055V85.652L902.5,74.974v77.58q0,8.92.676,15.746a33.84,33.84,0,0,0,2.906,11.421,14.973,14.973,0,0,0,6.555,6.893q4.325,2.3,11.624,2.3,3.379,0,6.758-.338a29.324,29.324,0,0,0,6.555-1.419,21.131,21.131,0,0,0,6.015-3.244,22.532,22.532,0,0,0,5.136-5.677V106.2a7.352,7.352,0,0,0-2.095-5.541,16.066,16.066,0,0,0-6.15-3.379l-12.7-4.055V86.733l57.172-11.759V179.722a9.925,9.925,0,0,0,1.825,6.015q1.825,2.5,6.555,3.852l12.435,3.514v6.488L952.1,211.348h-2.838V188.372h0a61.006,61.006,0,0,1-10.407,12.1,45.149,45.149,0,0,1-10.61,6.961,38.528,38.528,0,0,1-10.61,3.176A73.537,73.537,0,0,1,907.367,211.348Z" transform="translate(415.487 -422)"/>
  </g>
</svg>
