<?xml version="1.0" encoding="utf-8"?>
<!-- Generator: Adobe Illustrator 24.0.0, SVG Export Plug-In . SVG Version: 6.00 Build 0)  -->
<svg version="1.1" id="Layer_1" xmlns="http://www.w3.org/2000/svg" xmlns:xlink="http://www.w3.org/1999/xlink" x="0px" y="0px"
	 viewBox="0 0 109.2 109.2" style="enable-background:new 0 0 109.2 109.2;" xml:space="preserve">
<style type="text/css">
	.st0{fill:#FFFFFF;}
	.st1{fill-rule:evenodd;clip-rule:evenodd;fill:#E57D33;}
</style>
<g id="Group_5840" transform="translate(0 0)">
	<circle id="Ellipse_35" class="st0" cx="54.6" cy="54.6" r="53"/>
	<path id="Path_19106" class="st1" d="M53.9,28.1c-6.6,0-7.5,0-10.3,0.2c-2.2,0-4.4,0.5-6.4,1.2c-1.8,0.7-3.4,1.7-4.7,3.1
		c-1.3,1.3-2.4,2.9-3.1,4.7c-0.8,2.1-1.2,4.2-1.2,6.4c-0.1,2.8-0.2,3.7-0.2,10.9s0,8.1,0.2,10.9c0,2.2,0.5,4.4,1.2,6.4
		c0.7,1.8,1.7,3.4,3.1,4.7c1.3,1.3,2.9,2.4,4.7,3.1c2.1,0.8,4.2,1.2,6.4,1.2c2.8,0.1,3.7,0.2,10.9,0.2s8.1,0,10.9-0.2
		c2.2,0,4.4-0.5,6.4-1.2c1.8-0.7,3.4-1.7,4.7-3.1c1.3-1.3,2.4-2.9,3.1-4.7c0.8-2.1,1.2-4.2,1.2-6.4c0.1-2.7,0.2-3.7,0.2-10.3V54
		c0-6.6,0-7.5-0.2-10.3c0-2.2-0.5-4.4-1.2-6.4c-0.7-1.8-1.7-3.4-3.1-4.7c-1.3-1.3-2.9-2.4-4.7-3.1c-2.1-0.8-4.2-1.2-6.4-1.2
		c-2.7-0.1-3.7-0.2-10.3-0.2L53.9,28.1z M71.9,40.5c0,1.8-1.4,3.2-3.2,3.2s-3.2-1.4-3.2-3.2c0-1.8,1.4-3.2,3.2-3.2
		S71.9,38.7,71.9,40.5z M54.6,63.4c-4.9,0-8.8-4-8.8-8.8c0-4.9,4-8.8,8.8-8.8c4.9,0,8.8,4,8.8,8.8S59.5,63.4,54.6,63.4z M54.6,41
		c7.5,0,13.6,6.1,13.6,13.6c0,7.5-6.1,13.6-13.6,13.6c-7.5,0-13.6-6.1-13.6-13.6C41,47.1,47.1,41,54.6,41L54.6,41z M54.6,32.9
		c7.1,0,7.9,0,10.7,0.2c1.7,0,3.3,0.3,4.9,0.9c1.2,0.4,2.2,1.1,3,2c0.9,0.9,1.6,1.9,2,3c0.6,1.6,0.9,3.2,0.9,4.9
		c0.1,2.8,0.2,3.6,0.2,10.7s0,7.9-0.2,10.7c0,1.7-0.3,3.3-0.9,4.9c-0.4,1.2-1.1,2.2-2,3c-0.9,0.9-1.9,1.6-3,2
		c-1.6,0.6-3.2,0.9-4.9,0.9c-2.8,0.1-3.6,0.2-10.7,0.2c-7.1,0-7.9,0-10.7-0.2c-1.7,0-3.3-0.3-4.9-0.9c-1.2-0.4-2.2-1.1-3-2
		c-0.9-0.9-1.6-1.9-2-3c-0.6-1.6-0.9-3.2-0.9-4.9c-0.1-2.8-0.2-3.6-0.2-10.7s0-7.9,0.2-10.7c0-1.7,0.3-3.3,0.9-4.9
		c0.4-1.2,1.1-2.2,2-3c0.9-0.9,1.9-1.6,3-2c1.6-0.6,3.2-0.9,4.9-0.9C46.7,32.9,47.5,32.9,54.6,32.9L54.6,32.9z"/>
</g>
</svg>
