<svg xmlns="http://www.w3.org/2000/svg" width="30.833" height="18.5" viewBox="0 0 30.833 18.5">
  <g id="mastercard" transform="translate(0 -100.801)">
    <path id="Path_81" data-name="Path 81" d="M220.1,110.05a9.25,9.25,0,1,1-18.5,0h0a9.25,9.25,0,1,1,18.5,0Z" transform="translate(-189.267 0)" fill="#ffb600"/>
    <path id="Path_82" data-name="Path 82" d="M210.85,100.8a9.274,9.274,0,0,1,9.25,9.25h0a9.25,9.25,0,0,1-18.5,0" transform="translate(-189.267)" fill="#f7981d"/>
    <path id="Path_83" data-name="Path 83" d="M352.8,100.8a9.274,9.274,0,0,1,9.25,9.25h0a9.243,9.243,0,0,1-9.25,9.25" transform="translate(-331.217)" fill="#ff8500"/>
    <path id="Path_84" data-name="Path 84" d="M9.152,100.8a9.25,9.25,0,0,0,.1,18.5,9.358,9.358,0,0,0,6.216-2.4h0a8.8,8.8,0,0,0,.93-.979H14.487a11.3,11.3,0,0,1-.685-.93h3.279a6.27,6.27,0,0,0,.538-.979H13.263a5.834,5.834,0,0,1-.392-.979h5.09a9.718,9.718,0,0,0,.489-2.937,12.633,12.633,0,0,0-.2-1.958H12.578a7.154,7.154,0,0,1,.245-.979h5.09a5.833,5.833,0,0,0-.392-.979H13.214a9.707,9.707,0,0,1,.538-.979h3.279a4.654,4.654,0,0,0-.734-.979H14.487a8.342,8.342,0,0,1,.93-.93A9.031,9.031,0,0,0,9.2,100.9C9.2,100.8,9.2,100.8,9.152,100.8Z" transform="translate(0)" fill="#ff5050"/>
    <path id="Path_85" data-name="Path 85" d="M0,111.552a9.243,9.243,0,0,0,9.25,9.25,9.358,9.358,0,0,0,6.216-2.4h0a8.8,8.8,0,0,0,.93-.979H14.487a11.293,11.293,0,0,1-.685-.93h3.279a6.27,6.27,0,0,0,.538-.979H13.263a5.833,5.833,0,0,1-.392-.979h5.09a9.718,9.718,0,0,0,.489-2.937,12.633,12.633,0,0,0-.2-1.958H12.578a7.155,7.155,0,0,1,.245-.979h5.09a5.834,5.834,0,0,0-.392-.979H13.214a9.706,9.706,0,0,1,.538-.979h3.279a4.654,4.654,0,0,0-.734-.979H14.487a8.341,8.341,0,0,1,.93-.93A9.031,9.031,0,0,0,9.2,102.4H9.152" transform="translate(0 -1.502)" fill="#e52836"/>
    <path id="Path_86" data-name="Path 86" d="M149.7,120.8a9.358,9.358,0,0,0,6.216-2.4h0a8.794,8.794,0,0,0,.93-.979h-1.909a11.291,11.291,0,0,1-.685-.93h3.279a6.27,6.27,0,0,0,.538-.979h-4.356a5.834,5.834,0,0,1-.392-.979h5.09a9.718,9.718,0,0,0,.489-2.937,12.633,12.633,0,0,0-.2-1.958h-5.677a7.154,7.154,0,0,1,.245-.979h5.09a5.834,5.834,0,0,0-.392-.979h-4.307a9.7,9.7,0,0,1,.538-.979h3.279a4.655,4.655,0,0,0-.734-.979h-1.811a8.341,8.341,0,0,1,.93-.93,9.031,9.031,0,0,0-6.216-2.4H149.6" transform="translate(-140.448 -1.502)" fill="#cb2026"/>
    <g id="Group_29" data-name="Group 29" transform="translate(0.881 107.652)">
      <path id="Path_87" data-name="Path 87" d="M183.019,224.307l.147-.832a2.119,2.119,0,0,1-.245.049c-.343,0-.392-.2-.343-.294l.294-1.713h.538l.147-.93h-.489l.1-.587h-.979s-.587,3.23-.587,3.622a.735.735,0,0,0,.783.832A1.5,1.5,0,0,0,183.019,224.307Z" transform="translate(-171.371 -219.56)" fill="#fff"/>
      <path id="Path_88" data-name="Path 88" d="M210.4,230.907a1.557,1.557,0,0,0,1.713,1.713,2.541,2.541,0,0,0,1.028-.147l.2-.93a2.934,2.934,0,0,1-1.028.245c-1.077,0-.881-.783-.881-.783h2.007a6.346,6.346,0,0,0,.147-.881,1.326,1.326,0,0,0-1.419-1.419C211.134,228.607,210.4,229.684,210.4,230.907Zm1.713-1.419c.538,0,.44.636.44.685h-1.077C211.477,230.124,211.575,229.488,212.113,229.488Z" transform="translate(-198.409 -227.726)" fill="#fff"/>
      <path id="Path_89" data-name="Path 89" d="M298.692,217.547l.2-1.077a2.4,2.4,0,0,1-.832.245c-.685,0-.979-.538-.979-1.126,0-1.175.587-1.811,1.272-1.811a1.634,1.634,0,0,1,.881.294l.147-1.028a3.441,3.441,0,0,0-1.126-.245c-1.126,0-2.251.979-2.251,2.839,0,1.224.587,2.056,1.762,2.056A4.393,4.393,0,0,0,298.692,217.547Z" transform="translate(-278.772 -212.8)" fill="#fff"/>
      <path id="Path_90" data-name="Path 90" d="M88.26,227.2a3.466,3.466,0,0,0-1.175.2l-.147.832a2.893,2.893,0,0,1,1.077-.2c.343,0,.636.049.636.343,0,.2-.049.245-.049.245h-.44c-.832,0-1.762.343-1.762,1.468,0,.881.587,1.077.93,1.077a1.471,1.471,0,0,0,1.028-.44l-.049.392h.881l.392-2.692A1.16,1.16,0,0,0,88.26,227.2Zm.2,2.2c0,.147-.1.93-.685.93a.382.382,0,0,1-.392-.392c0-.245.147-.587.881-.587A.772.772,0,0,0,88.456,229.4Z" transform="translate(-81.995 -226.319)" fill="#fff"/>
      <path id="Path_91" data-name="Path 91" d="M136.326,230.413a1.254,1.254,0,0,0,1.468-1.272c0-1.224-1.175-.979-1.175-1.468,0-.245.2-.343.538-.343.147,0,.685.049.685.049l.147-.881a3.718,3.718,0,0,0-.93-.1c-.734,0-1.468.294-1.468,1.272,0,1.126,1.224,1.028,1.224,1.468,0,.294-.343.343-.587.343a3.2,3.2,0,0,1-.881-.147l-.147.881C135.249,230.315,135.494,230.413,136.326,230.413Z" transform="translate(-127.81 -225.568)" fill="#fff"/>
      <path id="Path_92" data-name="Path 92" d="M429.99,214.4l-.2,1.321a1.357,1.357,0,0,0-.93-.489c-.881,0-1.664,1.077-1.664,2.349,0,.783.392,1.615,1.224,1.615a1.307,1.307,0,0,0,.93-.392l-.049.343h.979l.734-4.7Zm-.44,2.594c0,.538-.245,1.224-.783,1.224-.343,0-.538-.294-.538-.783,0-.783.343-1.272.783-1.272C429.353,216.162,429.549,216.407,429.549,216.994Z" transform="translate(-401.946 -214.302)" fill="#fff"/>
      <path id="Path_93" data-name="Path 93" d="M15.33,219.1l.587-3.524.1,3.524H16.7l1.272-3.524-.538,3.524h1.028l.783-4.7H17.63l-.979,2.888L16.6,214.4H15.183l-.783,4.7Z" transform="translate(-14.4 -214.302)" fill="#fff"/>
      <path id="Path_94" data-name="Path 94" d="M261.077,232.617c.294-1.615.343-2.937,1.028-2.692a3.841,3.841,0,0,1,.343-1.126h-.2c-.44,0-.783.587-.783.587l.1-.538h-.93L260,232.666h1.077Z" transform="translate(-244.975 -227.821)" fill="#fff"/>
      <path id="Path_95" data-name="Path 95" d="M348.26,227.2a3.466,3.466,0,0,0-1.175.2l-.147.832a2.893,2.893,0,0,1,1.077-.2c.343,0,.636.049.636.343,0,.2-.049.245-.049.245h-.441c-.832,0-1.762.343-1.762,1.468,0,.881.587,1.077.93,1.077a1.47,1.47,0,0,0,1.028-.44l-.049.392h.881l.392-2.692A1.143,1.143,0,0,0,348.26,227.2Zm.245,2.2c0,.147-.1.93-.685.93a.382.382,0,0,1-.392-.392c0-.245.147-.587.881-.587C348.456,229.4,348.456,229.4,348.5,229.4Z" transform="translate(-326.089 -226.319)" fill="#fff"/>
      <path id="Path_96" data-name="Path 96" d="M395.477,232.617c.294-1.615.343-2.937,1.028-2.692a3.841,3.841,0,0,1,.343-1.126h-.2c-.44,0-.783.587-.783.587l.1-.538h-.93l-.636,3.817h1.077Z" transform="translate(-371.153 -227.821)" fill="#fff"/>
    </g>
    <g id="Group_30" data-name="Group 30" transform="translate(0.881 107.652)">
      <path id="Path_97" data-name="Path 97" d="M180,223.622a.735.735,0,0,0,.783.832,1.863,1.863,0,0,0,.734-.147l.147-.832a2.119,2.119,0,0,1-.245.049c-.343,0-.392-.2-.343-.294l.294-1.713h.538l.147-.93h-.489l.1-.587" transform="translate(-169.869 -219.56)" fill="#dce5e5"/>
      <path id="Path_98" data-name="Path 98" d="M218.4,230.907c0,1.37.44,1.713,1.224,1.713a2.541,2.541,0,0,0,1.028-.147l.2-.93a2.934,2.934,0,0,1-1.028.245c-1.077,0-.881-.783-.881-.783h2.007a6.346,6.346,0,0,0,.147-.881,1.326,1.326,0,0,0-1.419-1.419C218.645,228.607,218.4,229.684,218.4,230.907Zm1.224-1.419c.538,0,.636.636.636.685h-1.272C218.987,230.124,219.085,229.488,219.624,229.488Z" transform="translate(-205.92 -227.726)" fill="#dce5e5"/>
      <path id="Path_99" data-name="Path 99" d="M306.2,217.547l.2-1.077a2.4,2.4,0,0,1-.832.245c-.685,0-.979-.538-.979-1.126,0-1.175.587-1.811,1.273-1.811a1.635,1.635,0,0,1,.881.294l.147-1.028a3.441,3.441,0,0,0-1.126-.245c-1.126,0-1.762.979-1.762,2.839,0,1.224.1,2.056,1.273,2.056A4.393,4.393,0,0,0,306.2,217.547Z" transform="translate(-286.283 -212.8)" fill="#dce5e5"/>
      <path id="Path_100" data-name="Path 100" d="M86.938,229.779a2.893,2.893,0,0,1,1.077-.2c.343,0,.636.049.636.343,0,.2-.049.245-.049.245h-.44c-.832,0-1.762.343-1.762,1.468,0,.881.587,1.077.93,1.077a1.471,1.471,0,0,0,1.028-.44l-.049.392h.881l.392-2.692c0-1.126-.979-1.175-1.37-1.175m.734,2.1a1.6,1.6,0,0,1-1.175.93.382.382,0,0,1-.392-.392c0-.245.147-.587.881-.587A4,4,0,0,0,88.945,230.9Z" transform="translate(-81.995 -227.821)" fill="#dce5e5"/>
      <path id="Path_101" data-name="Path 101" d="M136,230.315a4.142,4.142,0,0,0,1.126.1,1.254,1.254,0,0,0,1.468-1.272c0-1.224-1.175-.979-1.175-1.468,0-.245.2-.343.538-.343.147,0,.685.049.685.049l.147-.881a3.718,3.718,0,0,0-.93-.1c-.734,0-.979.294-.979,1.272,0,1.126.734,1.028.734,1.468,0,.294-.343.343-.587.343" transform="translate(-128.561 -225.568)" fill="#dce5e5"/>
      <path id="Path_102" data-name="Path 102" d="M437.25,216.473a1.357,1.357,0,0,0-.93-.489c-.881,0-1.175,1.077-1.175,2.349,0,.783-.1,1.615.734,1.615a1.307,1.307,0,0,0,.93-.392l-.049.343h.979l.734-4.7m-1.272,2.545c0,.538-.44,1.224-.979,1.224-.343,0-.538-.294-.538-.783,0-.783.343-1.272.783-1.272A.748.748,0,0,1,437.2,217.745Z" transform="translate(-409.402 -215.053)" fill="#dce5e5"/>
      <path id="Path_103" data-name="Path 103" d="M15.33,219.1l.587-3.524.1,3.524H16.7l1.272-3.524-.538,3.524h1.028l.783-4.7H18.022l-1.37,2.888L16.6,214.4h-.538L14.4,219.1Z" transform="translate(-14.4 -214.302)" fill="#dce5e5"/>
      <path id="Path_104" data-name="Path 104" d="M260.8,232.617h1.028c.294-1.615.343-2.937,1.028-2.692a3.842,3.842,0,0,1,.343-1.126H263c-.44,0-.783.587-.783.587l.1-.538" transform="translate(-245.726 -227.821)" fill="#dce5e5"/>
      <path id="Path_105" data-name="Path 105" d="M346.938,229.779a2.893,2.893,0,0,1,1.077-.2c.343,0,.636.049.636.343,0,.2-.049.245-.049.245h-.44c-.832,0-1.762.343-1.762,1.468,0,.881.587,1.077.93,1.077a1.47,1.47,0,0,0,1.028-.44l-.049.392h.881l.392-2.692c0-1.126-.979-1.175-1.37-1.175m.734,2.1a1.6,1.6,0,0,1-1.175.93.382.382,0,0,1-.392-.392c0-.245.147-.587.881-.587A4.306,4.306,0,0,0,348.945,230.9Z" transform="translate(-326.089 -227.821)" fill="#dce5e5"/>
      <path id="Path_106" data-name="Path 106" d="M395.2,232.617h1.028c.294-1.615.343-2.937,1.028-2.692a3.843,3.843,0,0,1,.343-1.126h-.2c-.441,0-.783.587-.783.587l.1-.538" transform="translate(-371.904 -227.821)" fill="#dce5e5"/>
    </g>
  </g>
</svg>
