<svg xmlns="http://www.w3.org/2000/svg" width="46.943" height="19.189" viewBox="0 0 46.943 19.189">
  <g id="money" transform="translate(0 -13.877)">
    <g id="Group_37" data-name="Group 37">
      <g id="Group_36" data-name="Group 36">
        <path id="Path_122" data-name="Path 122" d="M22.694,18.917v10.4h3.692v-10.4Z"/>
      </g>
    </g>
    <g id="Group_39" data-name="Group 39">
      <g id="Group_38" data-name="Group 38">
        <path id="Path_123" data-name="Path 123" d="M21.479,18.811a1.987,1.987,0,0,0-2.541,1.054c-.136-.244-.28-.474-.394-.718a.393.393,0,0,0-.419-.252c-.8.013-1.6,0-2.407.007a1.877,1.877,0,0,0-.245.026v10.38H19.18v-6.45c0-.762.1-.884.878-.985a2.761,2.761,0,0,1,.574-.021c.37.035.737.09,1.152.142,0-.945-.009-1.87.006-2.8C21.793,18.955,21.7,18.869,21.479,18.811Z"/>
      </g>
    </g>
    <g id="Group_41" data-name="Group 41">
      <g id="Group_40" data-name="Group 40">
        <path id="Path_124" data-name="Path 124" d="M6.033,23.544a9.646,9.646,0,0,0-1.179-.655,6.432,6.432,0,0,1-.922-.491.709.709,0,0,1-.238-.569.657.657,0,0,1,.435-.38,1.959,1.959,0,0,1,.771-.01c.623.094,1.24.218,1.883.336,0-.757-.01-1.524.006-2.291a.332.332,0,0,0-.276-.38,7.49,7.49,0,0,0-3.842-.255,2.958,2.958,0,0,0-2.5,2.143c-.076.267-.112.547-.167.819v.61a1.728,1.728,0,0,1,.062.226,2.724,2.724,0,0,0,1.162,1.947,10.808,10.808,0,0,0,1.089.61c.316.172.648.321.952.51a.5.5,0,0,1,.221.648.778.778,0,0,1-.493.377,3.624,3.624,0,0,1-1.075-.021c-.571-.087-1.134-.231-1.731-.354,0,.856-.008,1.681.011,2.5,0,.082.148.209.249.235a9.791,9.791,0,0,0,3.58.38,3.083,3.083,0,0,0,3.13-3.021A2.953,2.953,0,0,0,6.033,23.544Z"/>
      </g>
    </g>
    <g id="Group_43" data-name="Group 43">
      <g id="Group_42" data-name="Group 42">
        <path id="Path_125" data-name="Path 125" d="M12.7,26.095a2.947,2.947,0,0,1-.012-.339q0-2.067,0-4.135c0-.107.012-.215.019-.349h1.459c.164-.8.323-1.567.491-2.38h-1.98V15.763c-1.012.243-1.984.488-2.962.708a.415.415,0,0,0-.36.4c-.121.674-.266,1.344-.407,2.04H7.608v2.373H8.95v.389c0,1.685-.011,3.366.006,5.051a2.456,2.456,0,0,0,1.806,2.66,9.11,9.11,0,0,0,3.873-.191V26.55c-.441.05-.843.111-1.248.135C12.922,26.712,12.751,26.555,12.7,26.095Z"/>
      </g>
    </g>
    <g id="Group_45" data-name="Group 45">
      <g id="Group_44" data-name="Group 44">
        <path id="Path_126" data-name="Path 126" d="M24.775,13.89a.229.229,0,0,0-.027-.014h-.406a.431.431,0,0,0-.067.021A1.878,1.878,0,0,0,23.253,17.1a1.849,1.849,0,0,0,.85.475,1.761,1.761,0,0,0,.453.055h.006a1.877,1.877,0,0,0,.213-3.742Z"/>
      </g>
    </g>
    <g id="Group_47" data-name="Group 47">
      <g id="Group_46" data-name="Group 46">
        <path id="Path_127" data-name="Path 127" d="M42.757,26.645a1.011,1.011,0,0,1-.888-1.3h5.074c-.079-1.127-.107-2.2-.249-3.259a3.708,3.708,0,0,0-4.261-3.368,3.873,3.873,0,0,0-4.021,3.021,9.078,9.078,0,0,0-.01,4.791,3.612,3.612,0,0,0,2.957,2.818,9.376,9.376,0,0,0,4.192-.13c.8-.2.8-.2.8-1.021V26.287c-.346.062-.643.117-.94.168A8.291,8.291,0,0,1,42.757,26.645Zm-.8-5.036a.9.9,0,0,1,.217-.448.6.6,0,0,1,1.062.217c.129.62.148,1.263.221,1.926H41.8C41.848,22.722,41.887,22.163,41.957,21.609Z"/>
      </g>
    </g>
    <g id="Group_49" data-name="Group 49">
      <g id="Group_48" data-name="Group 48">
        <path id="Path_128" data-name="Path 128" d="M37.049,22.518a6.359,6.359,0,0,0-.569-2.29,2.373,2.373,0,0,0-1.516-1.36,3.565,3.565,0,0,0-3.135.479c-.09.063-.18.123-.314.218-.274-.725-.86-.711-1.465-.663-.09.008-.18,0-.271,0H27.99V32.727c0,.113.008.229.015.34h3.729V29.374a16.024,16.024,0,0,0,1.6.146,3.268,3.268,0,0,0,3.418-2.567c.022-.075.045-.15.063-.229A12.344,12.344,0,0,0,37.049,22.518Zm-3.84,3.514c-.17.823-.658,1.053-1.484.75v-.694c0-1.343.008-2.686-.006-4.027a.372.372,0,0,1,.287-.42c.117-.038.23-.088.35-.123.511-.148.843.02.91.543A11.741,11.741,0,0,1,33.209,26.032Z"/>
      </g>
    </g>
  </g>
</svg>
