<svg xmlns="http://www.w3.org/2000/svg" width="19.382" height="18.502" viewBox="0 0 19.382 18.502">
  <g id="paypal" transform="translate(0 -10.676)">
    <path id="Path_111" data-name="Path 111" d="M168.115,75.069a1.565,1.565,0,0,0-1.6-.342.44.44,0,0,0-.3.352l-.123.847a2.614,2.614,0,0,1-2.576,2.236h-1.762a.44.44,0,0,0-.427.334l-1.321,5.286a.44.44,0,0,0,.427.547h2.2a.44.44,0,0,0,.427-.334l.8-3.19h1.718a2.857,2.857,0,0,0,2.784-2.175l.325-1.3A2.317,2.317,0,0,0,168.115,75.069Z" transform="translate(-153.388 -61.321)" fill="#03a9f4"/>
    <g id="Group_33" data-name="Group 33" transform="translate(0 23.89)">
      <path id="Path_112" data-name="Path 112" d="M.44,335.082a.44.44,0,0,1-.427-.547l.44-1.753v-.018l.44-1.752a.44.44,0,0,1,.427-.334H2.442a1.1,1.1,0,0,1,1.069,1.368l-.11.44a1.1,1.1,0,0,1-1.069.834H1.225l-.357,1.428A.44.44,0,0,1,.44,335.082Zm1.005-2.643h.886a.22.22,0,0,0,.213-.167l.11-.44a.219.219,0,0,0-.158-.267.214.214,0,0,0-.055-.007H1.666Z" transform="translate(0 -330.677)" fill="#283593"/>
      <path id="Path_113" data-name="Path 113" d="M81.818,375.964H81.19a1.221,1.221,0,0,1-1.185-1.517h0l.058-.234a1.175,1.175,0,0,1,1.145-.892h.627a1.221,1.221,0,0,1,1.182,1.518l-.058.234A1.175,1.175,0,0,1,81.818,375.964Zm-.957-1.3a.34.34,0,0,0,.329.422h.627a.3.3,0,0,0,.287-.224l.058-.234a.34.34,0,0,0-.329-.422h-.627a.3.3,0,0,0-.287.224Z" transform="translate(-76.667 -371.559)" fill="#283593"/>
      <path id="Path_114" data-name="Path 114" d="M128.44,375.975a.44.44,0,0,1-.427-.547l.44-1.762a.441.441,0,0,1,.855.213l-.44,1.762A.44.44,0,0,1,128.44,375.975Z" transform="translate(-122.714 -371.57)" fill="#283593"/>
    </g>
    <g id="Group_34" data-name="Group 34" transform="translate(10.571 23.89)">
      <path id="Path_115" data-name="Path 115" d="M256.44,335.081a.44.44,0,0,1-.427-.547l.44-1.753v-.019l.44-1.752a.441.441,0,0,1,.427-.334h1.121a1.1,1.1,0,0,1,1.069,1.368l-.11.441a1.1,1.1,0,0,1-1.069.834h-1.106l-.357,1.428A.44.44,0,0,1,256.44,335.081Zm1.005-2.643h.887a.22.22,0,0,0,.213-.167l.11-.44a.219.219,0,0,0-.213-.274h-.777Z" transform="translate(-256 -330.676)" fill="#03a9f4"/>
      <path id="Path_116" data-name="Path 116" d="M337.818,375.964h-.627a1.221,1.221,0,0,1-1.185-1.517h0l.058-.234a1.175,1.175,0,0,1,1.145-.892h.627a1.221,1.221,0,0,1,1.185,1.517l-.058.234A1.175,1.175,0,0,1,337.818,375.964Zm-.957-1.3a.34.34,0,0,0,.329.422h.627a.3.3,0,0,0,.287-.224l.058-.234a.34.34,0,0,0-.329-.422h-.627a.3.3,0,0,0-.287.224Z" transform="translate(-332.667 -371.559)" fill="#03a9f4"/>
      <path id="Path_117" data-name="Path 117" d="M384.44,375.975a.44.44,0,0,1-.427-.547l.44-1.762a.441.441,0,0,1,.855.213h0l-.44,1.762A.44.44,0,0,1,384.44,375.975Z" transform="translate(-378.714 -371.57)" fill="#03a9f4"/>
    </g>
    <g id="Group_35" data-name="Group 35" transform="translate(7.047 25.652)">
      <path id="Path_118" data-name="Path 118" d="M171.983,375.532a.44.44,0,0,1-.366-.2l-.881-1.321a.441.441,0,0,1,.733-.489l.881,1.321a.44.44,0,0,1-.367.685Z" transform="translate(-170.661 -373.329)" fill="#283593"/>
      <path id="Path_119" data-name="Path 119" d="M171.107,376.872a.44.44,0,0,1-.338-.722l2.2-2.643a.441.441,0,1,1,.677.565h0l-2.2,2.643A.44.44,0,0,1,171.107,376.872Z" transform="translate(-170.667 -373.348)" fill="#283593"/>
    </g>
    <path id="Path_120" data-name="Path 120" d="M427.106,335.071a.44.44,0,0,1-.427-.547L427.56,331a.441.441,0,0,1,.855.213h0l-.881,3.524A.44.44,0,0,1,427.106,335.071Z" transform="translate(-409.047 -306.776)" fill="#03a9f4"/>
    <path id="Path_121" data-name="Path 121" d="M115.529,11.438a2.226,2.226,0,0,0-1.679-.762h-4.986a.44.44,0,0,0-.433.362l-1.762,9.69a.44.44,0,0,0,.433.519h2.643a.44.44,0,0,0,.427-.334l.8-3.19h1.417a3.5,3.5,0,0,0,3.449-3l.22-1.506h0A2.244,2.244,0,0,0,115.529,11.438Z" transform="translate(-102.257)" fill="#283593"/>
  </g>
</svg>
